/* XPM */
static const char * tech1_xpm[] = {
"64 64 23 1",
" 	c None",
".	c #3D3D3D",
"+	c #2B2B2B",
"@	c #FF0033",
"#	c #1E1E1E",
"$	c #545353",
"%	c #904B07",
"&	c #990033",
"*	c #3F3F3F",
"=	c #595959",
"-	c #FB8B1C",
";	c #6A2F04",
">	c #C0C0C0",
",	c #878787",
"'	c #AC4E0A",
")	c #FF6633",
"!	c #9F4809",
"~	c #8B4423",
"{	c #FF3033",
"]	c #D94A37",
"^	c #91511E",
"/	c #553E28",
"(	c #FC8421",
"                                                                ",
"                                                                ",
"                                                                ",
"                                                                ",
"                                                                ",
"                                                                ",
"                                                                ",
"                                                                ",
"                                                                ",
"                                                                ",
"                                                                ",
"                                                                ",
"                                                                ",
"                                                                ",
"                  ...++++++@@@                                  ",
"                  ...++++++@@@                                  ",
"                  ...++++++@@@                                  ",
"               ###$$$$$$$$$###@@@%%%######                      ",
"               ###$$$$$$$$$###@@@%%%######                      ",
"               ###$$$$$$$$$###@@@%%%######                      ",
"               ###&&&&&&&&&###***@@@===******                   ",
"               ###&&&&&&&&&###***@@@===******                   ",
"               ###&&&&&&&&&###***@@@===******                   ",
"               ###......######+++---------###                   ",
"               ###......######+++---------###                   ",
"               ###......######+++---------###                   ",
"         ;;;;;;###>>>,,,&&&##################;;;;;;;;;;;;       ",
"         ;;;;;;###>>>,,,&&&##################;;;;;;;;;;;;       ",
"         ;;;;;;###>>>,,,&&&##################;;;;;;;;;;;;       ",
"      ''''''''''''''''''''''''''''''''''''''''''''';;;;;;       ",
"      ''''''''''''''''''''''''''''''''''''''''''''';;;;;;       ",
"      ''''''''''''''''''''''''''''''''''''''''''''';;;;;;       ",
"      '''))))))------------------------------))))))!!!;;;       ",
"      '''))))))------------------------------))))))!!!;;;       ",
"      '''))))))------------------------------))))))!!!;;;       ",
"      ''')))---~~~------{{{{{{{{{{{{]]]]]]]]]---)))''';;;       ",
"      ''')))---~~~------{{{{{{{{{{{{]]]]]]]]]---)))''';;;       ",
"      ''')))^^^///^^^---------------------------)))''';;;       ",
"      ''')))^^^///^^^---------------------------)))''';;;       ",
"      ''')))^^^///^^^---------------------------)))''';;;       ",
"      ''')))---~~~------{{{{{{{{{{{{]]]]]]]]]---)))''';;;       ",
"      ''')))---~~~------{{{{{{{{{{{{]]]]]]]]]---)))''';;;       ",
"      ''')))---~~~------{{{{{{{{{{{{]]]]]]]]]---)))''';;;       ",
"      ''')))(((------------------------------))))))''';;;       ",
"      ''')))(((------------------------------))))))''';;;       ",
"      ''')))(((------------------------------))))))''';;;       ",
"         '''''''''''''''''''''''''''''''''''''''''''''          ",
"         '''''''''''''''''''''''''''''''''''''''''''''          ",
"         '''''''''''''''''''''''''''''''''''''''''''''          ",
"                                                                ",
"                                                                ",
"                                                                ",
"                                                                ",
"                                                                ",
"                                                                ",
"                                                                ",
"                                                                ",
"                                                                ",
"                                                                ",
"                                                                ",
"                                                                ",
"                                                                ",
"                                                                ",
"                                                                "};
