/* XPM */
static char * IdCard_xpm[] = {
"64 64 77 1",
" 	c None",
".	c #1E1E1E",
"+	c #646464",
"@	c #1F1F1F",
"#	c #9E9E9E",
"$	c #1D1D1D",
"%	c #1B1B1B",
"&	c #8E948E",
"*	c #A7A7A7",
"=	c #A6A6A6",
"-	c #A4A4A4",
";	c #A2A2A2",
">	c #8D938D",
",	c #3B3B3B",
"'	c #3A3A3A",
")	c #A0A0A0",
"!	c #191919",
"~	c #516B4F",
"{	c #516C4F",
"]	c #8C928C",
"^	c #3C3C3C",
"/	c #A5A5A5",
"(	c #A1A1A1",
"_	c #9D9D9D",
":	c #9B9B9B",
"<	c #181818",
"[	c #506A4E",
"}	c #506B4E",
"|	c #8B918B",
"1	c #9F9F9F",
"2	c #979797",
"3	c #161616",
"4	c #1C1C1C",
"5	c #4F694D",
"6	c #4F6A4D",
"7	c #4F6A4E",
"8	c #373737",
"9	c #9C9C9C",
"0	c #999999",
"a	c #969696",
"b	c #888E88",
"c	c #8A908A",
"d	c #A3A3A3",
"e	c #959595",
"f	c #929292",
"g	c #151515",
"h	c #878D87",
"i	c #4E694C",
"j	c #898F89",
"k	c #1A1A1A",
"l	c #939393",
"m	c #909090",
"n	c #0B4D05",
"o	c #0B4E05",
"p	c #949494",
"q	c #34D42A",
"r	c #0B4E06",
"s	c #838983",
"t	c #818781",
"u	c #171717",
"v	c #34D329",
"w	c #34D429",
"x	c #0B4D06",
"y	c #0B6004",
"z	c #4D674B",
"A	c #868C86",
"B	c #848A84",
"C	c #818881",
"D	c #0B4B06",
"E	c #31D429",
"F	c #31D128",
"G	c #0B4C06",
"H	c #4E684C",
"I	c #4C674A",
"J	c #4C664A",
"K	c #858B85",
"L	c #858C85",
"                                                                ",
"                                                                ",
"                                                                ",
"                                                                ",
"                                                                ",
"                                                                ",
"                                                                ",
"                                                                ",
"                                                                ",
"                                                                ",
"                                                  ....          ",
"                                                  ....          ",
"                                              ....++++..        ",
"                                              ....++++..        ",
"                                          @@..++####++$$        ",
"                                          @@..++####++$$        ",
"                                      @@@@++++########++%%      ",
"                                      @@@@++++########++%%      ",
"                                  @@@@++&&****==--;;####%%      ",
"                                  @@@@++&&****==--;;####%%      ",
"                              ....++>>>>>>>>**,,''))####++!!    ",
"                              ....++>>>>>>>>**,,''))####++!!    ",
"                          ....~~{{]]]]]]>>^^,,//((##__::++<<    ",
"                          ....~~{{]]]]]]>>^^,,//((##__::++<<    ",
"                      $$$$[[}}}}}}}}^^^^]]||--((11##::22##++33  ",
"                      $$$$[[}}}}}}}}^^^^]]||--((11##::22##++33  ",
"                  44$$5555667766,,,,||||||||''88##9900aa##++33  ",
"                  44$$5555667766,,,,||||||||''88##9900aa##++33  ",
"              4444++bbbb5555''''556666cc,,''dd11__!!!!eeff##++gg",
"              4444++bbbb5555''''556666cc,,''dd11__!!!!eeff##++gg",
"          4444++hhbbbbbb''''55ii55'',,ccjjjjhh44%%kk<<eellmm++33",
"          4444++hhbbbbbb''''55ii55'',,ccjjjjhh44%%kk<<eellmm++33",
"      4444++__hhhhnnoojjjjii55''''555555jj$$4444%%0022ppff++3333",
"      4444++__hhhhnnoojjjjii55''''555555jj$$4444%%0022ppff++3333",
"      44++;;;;nnooqqqqrrjjjj555555ii55rrrr$$$$sstt::00++uuuu    ",
"      44++;;;;nnooqqqqrrjjjj555555ii55rrrr$$$$sstt::00++uuuu    ",
"      $$++ddooqqvvvvwwxxjjjjcc6666wwyyyyrrzzAABBCC++uuuu        ",
"      $$++ddooqqvvvvwwxxjjjjcc6666wwyyyyrrzzAABBCC++uuuu        ",
"        $$;;DDEEFFDDGGhhjjjjccrryyyywwHHHHIIJJ++!!kk            ",
"        $$;;DDEEFFDDGGhhjjjjccrryyyywwHHHHIIJJ++!!kk            ",
"        $$++11DDDDKKAAAAbb..@@rrrr[[66iiHHzz44%%                ",
"        $$++11DDDDKKAAAAbb..@@rrrr[[66iiHHzz44%%                ",
"          $$11(())KKLL%%44$$..cc~~}}[[66$$44                    ",
"          $$11(())KKLL%%44$$..cc~~}}[[66$$44                    ",
"          %%++99__%%%%4444bbcc||||~~....                        ",
"          %%++99__%%%%4444bbcc||||~~....                        ",
"            kk++__%%%%KKhhjjjj++....                            ",
"            kk++__%%%%KKhhjjjj++....                            ",
"            %%++####KKKKAA++$$@@                                ",
"            %%++####KKKKAA++$$@@                                ",
"              kk++##KK++%%44                                    ",
"              kk++##KK++%%44                                    ",
"              %%++++kk%%                                        ",
"              %%++++kk%%                                        ",
"                %%%%                                            ",
"                %%%%                                            ",
"                                                                ",
"                                                                ",
"                                                                ",
"                                                                ",
"                                                                ",
"                                                                ",
"                                                                ",
"                                                                "};
