/* XPM */
static char * D:\SHAPL_SOENEN\wxRibbonApp\ProjectRibbonApplication\ProjectRibbonApplication\graphics\tech1_disabled_xpm[] = {
"64 64 23 1",
" 	c None",
".	c #3D3D3D",
"+	c #2B2B2B",
"@	c #3A3A3A",
"#	c #1E1E1E",
"$	c #535353",
"%	c #555555",
"&	c #242424",
"*	c #3F3F3F",
"=	c #595959",
"-	c #9B9B9B",
";	c #383838",
">	c #C0C0C0",
",	c #878787",
"'	c #5D5D5D",
")	c #838383",
"!	c #565656",
"~	c #515151",
"{	c #5C5C5C",
"]	c #676767",
"^	c #5B5B5B",
"/	c #414141",
"(	c #969696",
"                                                                ",
"                                                                ",
"                                                                ",
"                                                                ",
"                                                                ",
"                                                                ",
"                                                                ",
"                                                                ",
"                                                                ",
"                                                                ",
"                                                                ",
"                                                                ",
"                                                                ",
"                                                                ",
"                  ...++++++@@@                                  ",
"                  ...++++++@@@                                  ",
"                  ...++++++@@@                                  ",
"               ###$$$$$$$$$###@@@%%%######                      ",
"               ###$$$$$$$$$###@@@%%%######                      ",
"               ###$$$$$$$$$###@@@%%%######                      ",
"               ###&&&&&&&&&###***@@@===******                   ",
"               ###&&&&&&&&&###***@@@===******                   ",
"               ###&&&&&&&&&###***@@@===******                   ",
"               ###......######+++---------###                   ",
"               ###......######+++---------###                   ",
"               ###......######+++---------###                   ",
"         ;;;;;;###>>>,,,&&&##################;;;;;;;;;;;;       ",
"         ;;;;;;###>>>,,,&&&##################;;;;;;;;;;;;       ",
"         ;;;;;;###>>>,,,&&&##################;;;;;;;;;;;;       ",
"      ''''''''''''''''''''''''''''''''''''''''''''';;;;;;       ",
"      ''''''''''''''''''''''''''''''''''''''''''''';;;;;;       ",
"      ''''''''''''''''''''''''''''''''''''''''''''';;;;;;       ",
"      '''))))))------------------------------))))))!!!;;;       ",
"      '''))))))------------------------------))))))!!!;;;       ",
"      '''))))))------------------------------))))))!!!;;;       ",
"      ''')))---~~~------{{{{{{{{{{{{]]]]]]]]]---)))''';;;       ",
"      ''')))---~~~------{{{{{{{{{{{{]]]]]]]]]---)))''';;;       ",
"      ''')))^^^///^^^---------------------------)))''';;;       ",
"      ''')))^^^///^^^---------------------------)))''';;;       ",
"      ''')))^^^///^^^---------------------------)))''';;;       ",
"      ''')))---~~~------{{{{{{{{{{{{]]]]]]]]]---)))''';;;       ",
"      ''')))---~~~------{{{{{{{{{{{{]]]]]]]]]---)))''';;;       ",
"      ''')))---~~~------{{{{{{{{{{{{]]]]]]]]]---)))''';;;       ",
"      ''')))(((------------------------------))))))''';;;       ",
"      ''')))(((------------------------------))))))''';;;       ",
"      ''')))(((------------------------------))))))''';;;       ",
"         '''''''''''''''''''''''''''''''''''''''''''''          ",
"         '''''''''''''''''''''''''''''''''''''''''''''          ",
"         '''''''''''''''''''''''''''''''''''''''''''''          ",
"                                                                ",
"                                                                ",
"                                                                ",
"                                                                ",
"                                                                ",
"                                                                ",
"                                                                ",
"                                                                ",
"                                                                ",
"                                                                ",
"                                                                ",
"                                                                ",
"                                                                ",
"                                                                ",
"                                                                "};
